<mxfile host="app.diagrams.net" modified="2023-01-21T11:23:24.277Z" agent="5.0 (Windows NT 10.0; Win64; x64) AppleWebKit/537.36 (KHTML, like Gecko) Chrome/109.0.0.0 Safari/537.36 Edg/109.0.1518.55" etag="UVQbf_V_OvmXpixNT6AV" version="20.8.5" type="github">
  <diagram id="C5RBs43oDa-KdzZeNtuy" name="Page-1">
    <mxGraphModel dx="760" dy="391" grid="0" gridSize="10" guides="1" tooltips="1" connect="1" arrows="1" fold="1" page="1" pageScale="1" pageWidth="827" pageHeight="1169" background="none" math="0" shadow="1">
      <root>
        <mxCell id="WIyWlLk6GJQsqaUBKTNV-0" />
        <mxCell id="WIyWlLk6GJQsqaUBKTNV-1" parent="WIyWlLk6GJQsqaUBKTNV-0" />
        <mxCell id="mh1vXI5inr4Wv4df_WpW-0" value="&lt;font color=&quot;#fafafa&quot;&gt;ClOSED-LOOP-SYSTEM&lt;/font&gt;" style="rounded=0;whiteSpace=wrap;html=1;fillColor=#000000;strokeColor=#82b366;" vertex="1" parent="WIyWlLk6GJQsqaUBKTNV-1">
          <mxGeometry x="330" y="244" width="177" height="35" as="geometry" />
        </mxCell>
        <mxCell id="mh1vXI5inr4Wv4df_WpW-1" value="" style="endArrow=classic;html=1;rounded=0;exitX=1;exitY=0.5;exitDx=0;exitDy=0;entryX=0;entryY=0.5;entryDx=0;entryDy=0;" edge="1" parent="WIyWlLk6GJQsqaUBKTNV-1" target="mh1vXI5inr4Wv4df_WpW-4">
          <mxGeometry width="50" height="50" relative="1" as="geometry">
            <mxPoint x="127" y="356" as="sourcePoint" />
            <mxPoint x="207" y="356" as="targetPoint" />
          </mxGeometry>
        </mxCell>
        <mxCell id="mh1vXI5inr4Wv4df_WpW-3" value="INPUT&amp;nbsp; +" style="text;html=1;strokeColor=none;fillColor=none;align=center;verticalAlign=middle;whiteSpace=wrap;rounded=0;fontFamily=Comic Sans MS;fontStyle=1" vertex="1" parent="WIyWlLk6GJQsqaUBKTNV-1">
          <mxGeometry x="127" y="316" width="70" height="30" as="geometry" />
        </mxCell>
        <mxCell id="mh1vXI5inr4Wv4df_WpW-8" style="edgeStyle=orthogonalEdgeStyle;rounded=0;orthogonalLoop=1;jettySize=auto;html=1;exitX=1;exitY=0.5;exitDx=0;exitDy=0;fontFamily=Comic Sans MS;" edge="1" parent="WIyWlLk6GJQsqaUBKTNV-1" source="mh1vXI5inr4Wv4df_WpW-4">
          <mxGeometry relative="1" as="geometry">
            <mxPoint x="327" y="356" as="targetPoint" />
          </mxGeometry>
        </mxCell>
        <mxCell id="mh1vXI5inr4Wv4df_WpW-4" value="" style="ellipse;whiteSpace=wrap;html=1;aspect=fixed;fontFamily=Comic Sans MS;fillColor=#ffe6cc;strokeColor=#d79b00;" vertex="1" parent="WIyWlLk6GJQsqaUBKTNV-1">
          <mxGeometry x="207" y="336" width="40" height="40" as="geometry" />
        </mxCell>
        <mxCell id="mh1vXI5inr4Wv4df_WpW-9" value="ERROR" style="text;html=1;strokeColor=none;fillColor=none;align=center;verticalAlign=middle;whiteSpace=wrap;rounded=0;fontFamily=Comic Sans MS;fontStyle=1" vertex="1" parent="WIyWlLk6GJQsqaUBKTNV-1">
          <mxGeometry x="247" y="316" width="70" height="30" as="geometry" />
        </mxCell>
        <mxCell id="mh1vXI5inr4Wv4df_WpW-14" style="edgeStyle=orthogonalEdgeStyle;rounded=0;orthogonalLoop=1;jettySize=auto;html=1;exitX=1;exitY=0.5;exitDx=0;exitDy=0;fontFamily=Comic Sans MS;" edge="1" parent="WIyWlLk6GJQsqaUBKTNV-1" source="mh1vXI5inr4Wv4df_WpW-12">
          <mxGeometry relative="1" as="geometry">
            <mxPoint x="507" y="356" as="targetPoint" />
          </mxGeometry>
        </mxCell>
        <mxCell id="mh1vXI5inr4Wv4df_WpW-12" value="&lt;b&gt;CONTROLLER&lt;/b&gt;" style="rounded=1;whiteSpace=wrap;html=1;fontFamily=Comic Sans MS;fillColor=#1ba1e2;fontColor=#ffffff;strokeColor=#006EAF;" vertex="1" parent="WIyWlLk6GJQsqaUBKTNV-1">
          <mxGeometry x="327" y="336" width="100" height="40" as="geometry" />
        </mxCell>
        <mxCell id="mh1vXI5inr4Wv4df_WpW-17" style="edgeStyle=orthogonalEdgeStyle;rounded=0;orthogonalLoop=1;jettySize=auto;html=1;exitX=1;exitY=0.5;exitDx=0;exitDy=0;fontFamily=Comic Sans MS;" edge="1" parent="WIyWlLk6GJQsqaUBKTNV-1" source="mh1vXI5inr4Wv4df_WpW-15">
          <mxGeometry relative="1" as="geometry">
            <mxPoint x="687" y="356" as="targetPoint" />
          </mxGeometry>
        </mxCell>
        <mxCell id="mh1vXI5inr4Wv4df_WpW-15" value="&lt;b&gt;PROCESS&lt;/b&gt;" style="rounded=1;whiteSpace=wrap;html=1;fontFamily=Comic Sans MS;fillColor=#60a917;fontColor=#ffffff;strokeColor=#2D7600;" vertex="1" parent="WIyWlLk6GJQsqaUBKTNV-1">
          <mxGeometry x="507" y="336" width="100" height="40" as="geometry" />
        </mxCell>
        <mxCell id="mh1vXI5inr4Wv4df_WpW-18" value="OUTPUT" style="text;html=1;strokeColor=none;fillColor=none;align=center;verticalAlign=middle;whiteSpace=wrap;rounded=0;fontFamily=Comic Sans MS;fontStyle=1" vertex="1" parent="WIyWlLk6GJQsqaUBKTNV-1">
          <mxGeometry x="607" y="316" width="70" height="30" as="geometry" />
        </mxCell>
        <mxCell id="mh1vXI5inr4Wv4df_WpW-19" value="" style="endArrow=classic;html=1;rounded=0;fontFamily=Comic Sans MS;entryX=0.5;entryY=1;entryDx=0;entryDy=0;" edge="1" parent="WIyWlLk6GJQsqaUBKTNV-1" target="mh1vXI5inr4Wv4df_WpW-4">
          <mxGeometry width="50" height="50" relative="1" as="geometry">
            <mxPoint x="647" y="356" as="sourcePoint" />
            <mxPoint x="227" y="456" as="targetPoint" />
            <Array as="points">
              <mxPoint x="647" y="456" />
              <mxPoint x="227" y="456" />
            </Array>
          </mxGeometry>
        </mxCell>
        <mxCell id="mh1vXI5inr4Wv4df_WpW-22" value="&lt;b&gt;&lt;font color=&quot;#fafafa&quot;&gt;FEEDBACK&lt;/font&gt;&lt;/b&gt;" style="rounded=1;whiteSpace=wrap;html=1;fontFamily=Comic Sans MS;fillColor=#fa6800;fontColor=#000000;strokeColor=#C73500;" vertex="1" parent="WIyWlLk6GJQsqaUBKTNV-1">
          <mxGeometry x="381" y="436" width="100" height="40" as="geometry" />
        </mxCell>
        <mxCell id="mh1vXI5inr4Wv4df_WpW-24" value="-" style="text;html=1;strokeColor=none;fillColor=none;align=center;verticalAlign=middle;whiteSpace=wrap;rounded=0;fontFamily=Comic Sans MS;fontStyle=1" vertex="1" parent="WIyWlLk6GJQsqaUBKTNV-1">
          <mxGeometry x="177" y="376" width="70" height="30" as="geometry" />
        </mxCell>
      </root>
    </mxGraphModel>
  </diagram>
</mxfile>
